<svg width="58" height="53" viewBox="0 0 58 53" fill="none" xmlns="http://www.w3.org/2000/svg">
<path d="M0 52.8543C0 52.7741 0.0835986 52.5342 0.185775 52.3212C0.287951 52.1081 0.85683 50.8074 1.44995 49.4307C2.92474 46.0075 6.16853 38.5616 8.07374 34.2264C10.9961 27.5767 11.7351 25.9041 14.0028 20.8067C17.4041 13.1613 19.7443 8.09851 20.506 6.73812C21.4986 4.9652 22.8591 3.21967 24.0984 2.12913C25.8416 0.595093 28.0091 -0.201251 29.7744 0.0437341C32.6932 0.448813 35.5853 2.975 37.7118 6.97712C37.9629 7.44973 38.966 9.62311 39.9409 11.8068C40.9158 13.9906 41.864 16.111 42.048 16.5189C42.4643 17.4417 46.2267 25.9152 46.9466 27.5513C47.2383 28.2142 47.7461 29.3652 48.075 30.1092C48.4039 30.8531 48.673 31.4894 48.673 31.523C48.673 31.597 42.1475 31.5821 39.5961 31.5023L37.7693 31.4451L36.6329 28.8029C36.0079 27.3497 34.2067 23.1361 32.6301 19.4393C29.6693 12.4964 29.1949 11.4124 29.0809 11.329C29.0116 11.2784 28.9081 11.4965 27.235 15.221C25.9273 18.1318 25.2284 19.684 24.083 22.2205C22.9579 24.7124 18.321 35.0077 15.1265 42.1067C13.8645 44.9111 12.6822 47.456 12.4993 47.7619C11.4804 49.4653 9.62645 51.1152 7.91622 51.8403C7.59291 51.9773 6.95804 52.1963 6.50541 52.3268C5.72053 52.5531 5.55454 52.5659 2.91959 52.6047C0.263124 52.6438 0.156757 52.6522 0.156757 52.8227C0.156757 52.9202 0.121486 53 0.0783784 53C0.0352703 53 0 52.9344 0 52.8543ZM52.6311 52.5649C52.0227 52.5006 50.6641 52.1652 50.0446 51.9263C48.2409 51.2307 46.5595 49.8846 45.5381 48.3185C45.1714 47.7564 43.2604 43.6726 43.327 43.5937C43.3503 43.5662 45.7575 43.5437 48.6764 43.5437C52.8272 43.5437 54.0009 43.5689 54.0635 43.6595C54.1536 43.7901 58 52.5081 58 52.5818C58 52.6337 53.1374 52.6184 52.6311 52.5649ZM28.5385 41.4502C27.5352 41.1311 26.5987 40.2435 26.2125 39.2457C25.802 38.1849 25.823 36.6584 26.263 35.5927C26.709 34.5123 27.5225 33.7786 28.654 33.4363C30.3619 32.9197 32.1814 33.5439 33.0508 34.9448C33.2024 35.189 33.3083 35.4447 33.2862 35.5129C33.264 35.5812 32.9738 35.7994 32.6411 35.9978C32.1664 36.2811 32.0277 36.3303 31.9962 36.2264C31.9741 36.1537 31.8167 35.9154 31.6464 35.6968C31.2281 35.16 30.6796 34.9217 29.8622 34.9217C28.4703 34.9217 27.6178 35.7718 27.5284 37.2488C27.4514 38.5221 27.9584 39.4466 28.9437 39.8292C29.373 39.9959 30.3967 39.9792 30.858 39.798C31.2454 39.6458 31.6788 39.2439 31.904 38.8279L32.0228 38.6084L32.6668 38.9566C33.021 39.1482 33.3108 39.3216 33.3108 39.342C33.3108 39.5274 32.9357 40.1561 32.6104 40.5161C32.1727 41.0004 31.6227 41.3286 30.9752 41.492C30.404 41.6361 29.0498 41.6129 28.5385 41.4502ZM17.5155 41.3147C17.4947 41.2748 18.153 39.5071 18.9785 37.3866L20.4794 33.5311H21.4846H22.4898L22.7559 34.2032C22.9023 34.5729 23.5934 36.3085 24.2917 38.0601C24.9901 39.8117 25.5445 41.265 25.5237 41.2896C25.4825 41.3383 23.8217 41.3502 23.7962 41.3019C23.7875 41.2856 23.6568 40.9385 23.5057 40.5306L23.2309 39.7889H21.4715H19.7122L19.3961 40.56L19.08 41.3311L18.3167 41.3592C17.8969 41.3747 17.5364 41.3547 17.5155 41.3147ZM22.5341 38.1659C22.6025 38.035 21.5872 35.3389 21.4695 35.3389C21.3656 35.3389 20.2939 38.0742 20.3524 38.1897C20.4066 38.2967 22.4776 38.2741 22.5341 38.1659ZM35.1462 41.3264C35.1282 41.3051 35.1135 39.5425 35.1135 37.4094V33.5311H35.8581H36.6027V37.448V41.365H35.8908C35.4992 41.365 35.1641 41.3476 35.1462 41.3264ZM38.9084 41.3264C38.8904 41.3051 38.8757 39.542 38.8757 37.4082V33.5287L41.6777 33.5531L44.4797 33.5774L44.4639 34.2727C44.4552 34.6552 44.4464 34.9994 44.4443 35.0376C44.4422 35.0758 43.5411 35.1071 42.4419 35.1071H40.4432V35.8024V36.4978H41.8571H43.271L43.2483 37.309L43.2257 38.1202L41.8312 38.1455L40.4367 38.1708L40.4596 38.8872L40.4824 39.6035L42.4759 39.6499L44.4693 39.6962L44.4745 40.4236C44.4774 40.8237 44.4584 41.1918 44.4323 41.2417C44.3867 41.3289 38.9808 41.4118 38.9084 41.3264ZM46.1976 41.3264C46.1796 41.3051 46.1649 39.5425 46.1649 37.4094V33.5311H46.9095H47.6541V36.4792C47.6541 38.6486 47.6789 39.4568 47.7481 39.5386C47.8169 39.62 48.4452 39.6499 50.0856 39.6499H52.329L52.7009 40.4843C53.0183 41.1962 53.0519 41.3194 52.9303 41.3241C52.1655 41.3537 46.2225 41.3557 46.1976 41.3264Z" fill="white"/>
</svg>
