<svg width="108" height="84" viewBox="0 0 108 84" fill="none" xmlns="http://www.w3.org/2000/svg">
<path d="M0 83.2632C0 83.137 0.154989 82.7591 0.344419 82.4235C0.533849 82.0879 1.58853 80.0388 2.68815 77.87C5.42235 72.4772 11.4362 60.7476 14.9684 53.9181C20.3863 43.4426 21.7564 40.8076 25.9606 32.7776C32.2664 20.7334 36.6052 12.7579 38.0173 10.6148C39.8576 7.82186 42.38 5.07207 44.6775 3.3541C47.9093 0.937472 51.9277 -0.317038 55.2005 0.068896C60.612 0.707031 65.9737 4.68663 69.9162 10.9913C70.3818 11.7358 72.2415 15.1596 74.0489 18.5997C75.8563 22.0399 77.6142 25.3803 77.9554 26.0229C78.7272 27.4766 85.7025 40.8251 87.0372 43.4026C87.578 44.4468 88.5193 46.2601 89.1291 47.4321C89.7389 48.6041 90.2378 49.6063 90.2378 49.6593C90.2378 49.7759 78.1399 49.7524 73.4097 49.6267L70.0227 49.5366L67.916 45.3743C66.7573 43.0849 63.4178 36.4471 60.495 30.6234C55.0056 19.686 54.1261 17.9783 53.9148 17.847C53.7863 17.7672 53.5945 18.1109 50.4925 23.9782C48.0683 28.5637 46.7724 31.0089 44.649 35.0048C42.563 38.9304 33.9663 55.1488 28.0439 66.3322C25.7042 70.7501 23.5124 74.7591 23.1731 75.2411C21.2843 77.9245 17.8471 80.5236 14.6764 81.6659C14.0769 81.8818 12.8999 82.2267 12.0608 82.4323C10.6056 82.7887 10.2979 82.809 5.41281 82.8701C0.487821 82.9317 0.290621 82.9449 0.290621 83.2135C0.290621 83.3671 0.225231 83.4928 0.14531 83.4928C0.0653897 83.4928 0 83.3895 0 83.2632ZM97.576 82.8074C96.448 82.7062 93.9292 82.1777 92.7807 81.8014C89.4367 80.7055 86.3195 78.5851 84.4258 76.118C83.7461 75.2324 80.203 68.799 80.3266 68.6748C80.3698 68.6314 84.8327 68.5959 90.2442 68.5959C97.9395 68.5959 100.116 68.6357 100.232 68.7785C100.399 68.9842 107.53 82.718 107.53 82.834C107.53 82.9158 98.5146 82.8916 97.576 82.8074ZM52.9093 65.2981C51.0492 64.7953 49.313 63.397 48.597 61.8252C47.8358 60.1541 47.8749 57.7493 48.6905 56.0705C49.5175 54.3685 51.0256 53.2127 53.1234 52.6735C56.2897 51.8596 59.6631 52.843 61.2749 55.0498C61.5559 55.4345 61.7523 55.8373 61.7112 55.9448C61.6702 56.0523 61.132 56.396 60.5153 56.7087C59.6352 57.1549 59.378 57.2324 59.3197 57.0688C59.2788 56.9542 58.987 56.5788 58.6712 56.2344C57.8956 55.3888 56.8787 55.0134 55.3633 55.0134C52.7828 55.0134 51.2023 56.3525 51.0366 58.6793C50.8938 60.6853 51.8338 62.1417 53.6604 62.7444C54.4563 63.007 56.3543 62.9807 57.2095 62.6952C57.9278 62.4555 58.7312 61.8223 59.1488 61.1669L59.369 60.8213L60.563 61.3698C61.2197 61.6715 61.7569 61.9447 61.7569 61.9769C61.7569 62.269 61.0616 63.2594 60.4585 63.8264C59.6469 64.5894 58.6273 65.1065 57.4268 65.3638C56.3679 65.5908 53.8572 65.5543 52.9093 65.2981ZM32.4731 65.0846C32.4344 65.0217 33.6549 62.237 35.1854 58.8965L37.968 52.8227H39.8316H41.6953L42.1886 53.8816C42.4599 54.4639 43.7412 57.1981 45.0359 59.9575C46.3306 62.7169 47.3584 65.0062 47.3199 65.0449C47.2435 65.1217 44.1644 65.1405 44.1171 65.0644C44.1012 65.0387 43.8588 64.492 43.5786 63.8493L43.0691 62.681H39.8073H36.5456L35.9596 63.8957L35.3736 65.1104L33.9585 65.1547C33.1802 65.179 32.5118 65.1475 32.4731 65.0846ZM41.7773 60.1241C41.9042 59.9179 40.0218 55.6707 39.8035 55.6707C39.6111 55.6707 37.624 59.9796 37.7325 60.1616C37.8331 60.3302 41.6725 60.2946 41.7773 60.1241ZM65.1596 65.1029C65.1263 65.0695 65.0991 62.2927 65.0991 58.9324V52.8227H66.4795H67.86V58.9932V65.1638H66.5401C65.8141 65.1638 65.1929 65.1364 65.1596 65.1029ZM72.1347 65.1029C72.1013 65.0695 72.074 62.2919 72.074 58.9305V52.819L77.2688 52.8574L82.4637 52.8957L82.4343 53.9911C82.4182 54.5935 82.4019 55.1357 82.398 55.196C82.3942 55.2562 80.7236 55.3055 78.6856 55.3055H74.9802V56.4009V57.4963H77.6014H80.2227L80.1807 58.7742L80.1387 60.0521L77.5534 60.092L74.9681 60.1319L75.0105 61.2604L75.0528 62.3889L78.7486 62.4619L82.4443 62.5349L82.454 63.6808C82.4593 64.311 82.4241 64.8909 82.3758 64.9695C82.2913 65.1069 72.2688 65.2375 72.1347 65.1029ZM85.6486 65.1029C85.6152 65.0695 85.5878 62.2927 85.5878 58.9324V52.8227H86.9683H88.3487V57.467C88.3487 60.8846 88.3948 62.1577 88.5231 62.2866C88.6506 62.4148 89.8155 62.4619 92.8567 62.4619H97.0159L97.7054 63.7763C98.2938 64.8979 98.3562 65.092 98.1308 65.0994C96.7128 65.146 85.6947 65.1491 85.6486 65.1029Z" fill="#0C2135"/>
</svg>
