<svg width="40" height="54" viewBox="0 0 40 54" fill="none" xmlns="http://www.w3.org/2000/svg">
<path d="M19.4762 53.9718C17.5332 53.806 15.763 52.5883 14.8589 50.7955C14.5181 50.1196 0.485945 19.3039 0.343335 18.9181C-0.511398 16.6057 0.277986 13.7074 2.17541 12.1914C3.57378 11.0742 5.10548 10.6651 6.79071 10.9589C8.29645 11.2213 9.73031 12.1707 10.5797 13.4676C10.7568 13.738 12.6963 17.9123 15.4312 23.9095C17.9372 29.4048 20.0076 33.8793 20.0321 33.8529C20.0566 33.8265 22.1152 29.3304 24.6067 23.8615C27.3346 17.8736 29.254 13.7389 29.4317 13.4676C30.0163 12.5752 30.9996 11.7462 31.9792 11.32C32.7497 10.9847 33.2134 10.8993 34.2557 10.9005C35.0881 10.9015 35.2522 10.9208 35.7689 11.0782C37.3395 11.5568 38.6246 12.6451 39.3665 14.1248C40.119 15.626 40.2081 17.5569 39.5963 19.1083C39.3644 19.6965 25.2969 50.5328 25.0693 50.9519C24.2813 52.4031 22.8418 53.5066 21.2938 53.846C20.5843 54.0016 20.1657 54.0306 19.4762 53.9718ZM19.0672 11.4738C17.9608 11.2227 17.1609 10.817 16.3381 10.0896C15.6614 9.49136 15.0156 8.43434 14.7059 7.4179C14.544 6.88671 14.5294 6.75061 14.5294 5.77676C14.5294 4.80767 14.5445 4.66544 14.7023 4.14966C15.3228 2.12183 16.7739 0.671951 18.7058 0.149661C19.2961 -0.00994469 20.3431 -0.0483475 20.9916 0.0658149C23.2438 0.462287 25.0498 2.25532 25.5255 4.56733C25.657 5.20653 25.6569 6.34769 25.5253 6.9862C25.0888 9.10351 23.4933 10.8296 21.465 11.3789C20.8043 11.5579 19.6405 11.6039 19.0672 11.4738Z" fill="white"/>
</svg>
