<svg width="80" height="72" viewBox="0 0 80 72" fill="none" xmlns="http://www.w3.org/2000/svg">
<path d="M36 72V64H68V35.6C68 27.8 65.2833 21.1833 59.85 15.75C54.4167 10.3167 47.8 7.6 40 7.6C32.2 7.6 25.5833 10.3167 20.15 15.75C14.7167 21.1833 12 27.8 12 35.6V60H8C5.8 60 3.91667 59.2167 2.35 57.65C0.783333 56.0833 0 54.2 0 52V44C0 42.6 0.35 41.2833 1.05 40.05C1.75 38.8167 2.73333 37.8333 4 37.1L4.3 31.8C4.83333 27.2667 6.15 23.0667 8.25 19.2C10.35 15.3333 12.9833 11.9667 16.15 9.1C19.3167 6.23333 22.95 4 27.05 2.4C31.15 0.8 35.4667 0 40 0C44.5333 0 48.8333 0.8 52.9 2.4C56.9667 4 60.6 6.21667 63.8 9.05C67 11.8833 69.6333 15.2333 71.7 19.1C73.7667 22.9667 75.1 27.1667 75.7 31.7L76 36.9C77.2667 37.5 78.25 38.4 78.95 39.6C79.65 40.8 80 42.0667 80 43.4V52.6C80 53.9333 79.65 55.2 78.95 56.4C78.25 57.6 77.2667 58.5 76 59.1V64C76 66.2 75.2167 68.0833 73.65 69.65C72.0833 71.2167 70.2 72 68 72H36ZM28 44C26.8667 44 25.9167 43.6167 25.15 42.85C24.3833 42.0833 24 41.1333 24 40C24 38.8667 24.3833 37.9167 25.15 37.15C25.9167 36.3833 26.8667 36 28 36C29.1333 36 30.0833 36.3833 30.85 37.15C31.6167 37.9167 32 38.8667 32 40C32 41.1333 31.6167 42.0833 30.85 42.85C30.0833 43.6167 29.1333 44 28 44ZM52 44C50.8667 44 49.9167 43.6167 49.15 42.85C48.3833 42.0833 48 41.1333 48 40C48 38.8667 48.3833 37.9167 49.15 37.15C49.9167 36.3833 50.8667 36 52 36C53.1333 36 54.0833 36.3833 54.85 37.15C55.6167 37.9167 56 38.8667 56 40C56 41.1333 55.6167 42.0833 54.85 42.85C54.0833 43.6167 53.1333 44 52 44ZM16.1 37.8C15.6333 30.7333 17.7667 24.6667 22.5 19.6C27.2333 14.5333 33.1333 12 40.2 12C46.1333 12 51.35 13.8833 55.85 17.65C60.35 21.4167 63.0667 26.2333 64 32.1C57.9333 32.0333 52.35 30.4 47.25 27.2C42.15 24 38.2333 19.6667 35.5 14.2C34.4333 19.5333 32.1833 24.2833 28.75 28.45C25.3167 32.6167 21.1 35.7333 16.1 37.8Z" fill="#0C2135"/>
</svg>
