<?xml version="1.0" encoding="UTF-8" standalone="no"?>
<!-- Created with Inkscape (http://www.inkscape.org/) -->

<svg
   version="1.1"
   id="svg1"
   width="1022.1097"
   height="785.82275"
   viewBox="0 0 1022.1097 785.82275"
   sodipodi:docname="LogoFondoBlancoBlack.svg"
   inkscape:version="1.4.2 (f4327f4, 2025-05-13)"
   xmlns:inkscape="http://www.inkscape.org/namespaces/inkscape"
   xmlns:sodipodi="http://sodipodi.sourceforge.net/DTD/sodipodi-0.dtd"
   xmlns="http://www.w3.org/2000/svg"
   xmlns:svg="http://www.w3.org/2000/svg">
  <defs
     id="defs1" />
  <sodipodi:namedview
     id="namedview1"
     pagecolor="#ffffff"
     bordercolor="#000000"
     borderopacity="0.25"
     inkscape:showpageshadow="2"
     inkscape:pageopacity="0.0"
     inkscape:pagecheckerboard="0"
     inkscape:deskcolor="#d1d1d1"
     inkscape:zoom="0.89969398"
     inkscape:cx="511.8407"
     inkscape:cy="392.91138"
     inkscape:window-width="1920"
     inkscape:window-height="991"
     inkscape:window-x="-9"
     inkscape:window-y="-9"
     inkscape:window-maximized="1"
     inkscape:current-layer="g1" />
  <g
     inkscape:groupmode="layer"
     inkscape:label="Image"
     id="g1">
    <path
       style="fill:#ffffff;fill-opacity:1"
       d="m 6.9897778,783.22287 c 0,-1.16734 1.4401382,-4.66101 3.2003072,-7.76371 1.760169,-3.1027 11.56015,-22.04634 21.777736,-42.09697 C 57.373752,683.50648 113.25397,575.06598 146.07475,511.9276 196.41726,415.08211 209.14784,390.72194 248.21298,316.48457 306.80648,205.1365 347.12185,131.40266 360.24293,111.59006 c 17.09998,-25.820677 40.53748,-51.242424 61.8857,-67.124992 30.03006,-22.34166 67.36856,-33.939566 97.77891,-30.371617 50.28298,5.899539 100.10345,42.690826 136.73726,100.977359 4.32614,6.88313 21.60643,38.53605 38.40065,70.3398 16.79422,31.80376 33.12857,62.68577 36.29856,68.6267 7.17126,13.43975 71.98503,136.84645 84.38732,160.6751 5.0247,9.65401 13.77163,26.41766 19.43763,37.25256 5.66599,10.83489 10.30181,20.10071 10.30181,20.59071 0,1.07779 -112.41277,0.86074 -156.36535,-0.30192 l -31.47083,-0.83249 -19.57572,-38.48101 C 627.29222,411.7757 596.26233,350.40862 569.10355,296.56896 518.09702,195.45343 509.92452,179.66557 507.96088,178.45198 c -1.1938,-0.73781 -2.97617,2.43928 -31.79919,56.68238 -22.52617,42.39282 -34.56697,64.99879 -54.29764,101.94092 -19.38308,36.29135 -99.26223,186.23066 -154.29322,289.62025 -21.7399,40.84388 -42.10619,77.90716 -45.25842,82.36286 -17.55093,24.80838 -49.48943,48.83638 -78.95133,59.39671 -5.56962,1.99638 -16.50633,5.18478 -24.30379,7.08534 -13.52097,3.2956 -16.38035,3.48297 -61.772155,4.04792 -45.762574,0.56955 -47.5949354,0.69177 -47.5949354,3.17465 0,1.42026 -0.6075949,2.5823 -1.3502109,2.5823 -0.742616,0 -1.3502109,-0.9551 -1.3502109,-2.12244 z M 913.65642,779.00834 c -10.48079,-0.9357 -33.88572,-5.82105 -44.55696,-9.30045 -31.07214,-10.13121 -60.03664,-29.73474 -77.63312,-52.54304 -6.31601,-8.18673 -39.23784,-67.66306 -38.08921,-68.81169 0.40115,-0.40115 41.87016,-0.72937 92.15335,-0.72937 71.50418,0 91.7242,0.36774 92.80185,1.68777 1.5524,1.90155 67.81357,128.87024 67.81357,129.94337 0,0.75542 -83.76753,0.53208 -92.48948,-0.24659 z M 498.61822,617.13529 c -17.28387,-4.64822 -33.41695,-17.57505 -40.06956,-32.10626 -7.07301,-15.44949 -6.70983,-37.68143 0.86912,-53.20236 7.68351,-15.73507 21.69745,-26.42016 41.18946,-31.40537 29.42105,-7.52464 60.76668,1.56692 75.74293,21.96866 2.61137,3.55739 4.43596,7.28101 4.05464,8.2747 -0.38132,0.9937 -5.38183,4.17171 -11.11226,7.06225 -8.17819,4.12525 -10.56755,4.84127 -11.10984,3.3293 -0.37999,-1.05943 -3.09156,-4.53066 -6.02571,-7.71384 -7.20632,-7.81793 -16.65556,-11.28819 -30.73685,-11.28819 -23.97792,0 -38.66354,12.38005 -40.20265,33.89103 -1.32693,18.5456 7.40724,32.00938 24.37966,37.58143 7.39574,2.42803 25.03167,2.18506 32.97811,-0.45432 6.67407,-2.21677 14.13972,-8.07063 18.01965,-14.12932 l 2.04642,-3.19556 11.09404,5.07122 c 6.10173,2.78918 11.09405,5.31468 11.09405,5.61222 0,2.70032 -6.46115,11.85737 -12.06504,17.09916 -7.5411,7.05381 -17.01528,11.83399 -28.1702,14.21322 -9.8393,2.09863 -33.16821,1.76073 -41.97597,-0.60797 z m -189.89156,-1.97361 c -0.35938,-0.5815 10.98165,-26.32553 25.20231,-57.20897 l 25.85573,-56.15169 h 17.31692 17.31692 l 4.58346,9.78902 c 2.5209,5.38397 14.42664,30.66119 26.45719,56.17161 12.03055,25.51041 21.58085,46.67545 21.22289,47.03341 -0.71004,0.71003 -29.32052,0.88318 -29.76008,0.1801 -0.14838,-0.23734 -2.40013,-5.29229 -5.00389,-11.23322 L 407.184,592.94025 h -30.30808 -30.30809 l -5.44497,11.23021 -5.44497,11.23021 -13.1489,0.40913 c -7.2319,0.22503 -13.44295,-0.0666 -13.80233,-0.64812 z m 86.45428,-45.85904 c 1.17865,-1.90711 -16.31235,-41.17251 -18.34053,-41.17251 -1.78828,0 -20.25189,39.83652 -19.24341,41.51898 0.93413,1.55842 36.60991,1.22954 37.58394,-0.34647 z m 217.26593,46.02861 c -0.30943,-0.30942 -0.56259,-25.98031 -0.56259,-57.04641 v -56.48382 h 12.827 12.82701 v 57.04641 57.04641 h -12.26442 c -6.74543,0 -12.51758,-0.25317 -12.827,-0.56259 z m 64.81138,0 c -0.31011,-0.30942 -0.56385,-25.98798 -0.56385,-57.06347 v -56.50087 l 48.27004,0.3546 48.27005,0.35461 -0.27248,10.12658 c -0.14986,5.56962 -0.30175,10.58228 -0.33755,11.13924 -0.0358,0.55696 -15.55875,1.01266 -34.49546,1.01266 h -34.43038 v 10.12658 10.12658 h 24.35637 24.35636 l -0.39012,11.81435 -0.39012,11.81435 -24.02247,0.36893 -24.02248,0.36894 0.39378,10.43275 0.39379,10.43275 34.34039,0.67511 34.34039,0.6751 0.09,10.59342 c 0.0495,5.82638 -0.27751,11.18789 -0.72668,11.91446 -0.78533,1.27036 -93.91276,2.47735 -95.15957,1.23333 z m 125.5703,0 c -0.31049,-0.30942 -0.56453,-25.98031 -0.56453,-57.04641 v -56.48382 h 12.827 12.82701 v 42.9367 c 0,31.59494 0.42799,43.3647 1.62025,44.55696 1.18472,1.18472 12.00872,1.62026 40.26707,1.62026 h 38.64682 l 6.40717,12.15189 c 5.46684,10.36847 6.04689,12.16367 3.95234,12.23207 -13.17595,0.43027 -115.55518,0.45883 -115.98313,0.0323 z"
       id="path1" />
  </g>
</svg>
